<?xml version="1.0" standalone="no"?><!DOCTYPE svg PUBLIC "-//W3C//DTD SVG 1.1//EN" "http://www.w3.org/Graphics/SVG/1.1/DTD/svg11.dtd"><svg t="1502354382055" class="icon" style="" viewBox="0 0 1024 1024" version="1.1" xmlns="http://www.w3.org/2000/svg" p-id="4380" xmlns:xlink="http://www.w3.org/1999/xlink" width="16" height="16"><defs><style type="text/css"></style></defs><path d="M939.728688 367.731222 561.073672 754.255463c-26.980491 27.545356-70.700225 27.545356-97.725742 0-26.979468-27.545356-26.979468-72.196299 0-99.742678l378.656039-386.522194c26.980491-27.547403 70.744227-27.547403 97.724719 0C966.709179 295.534923 966.709179 340.185866 939.728688 367.731222L939.728688 367.731222zM561.073672 754.255463c-26.980491 27.545356-70.700225 27.545356-97.725742 0L84.73794 367.731222c-26.979468-27.545356-26.979468-72.196299 0-99.740632 26.979468-27.547403 70.744227-27.547403 97.725742 0l378.611014 386.522194C588.05314 682.058141 588.05314 726.710107 561.073672 754.255463L561.073672 754.255463z" p-id="4381" fill="#ffffff"></path></svg>