<?xml version="1.0" standalone="no"?><!DOCTYPE svg PUBLIC "-//W3C//DTD SVG 1.1//EN" "http://www.w3.org/Graphics/SVG/1.1/DTD/svg11.dtd"><svg t="1501657381739" class="icon" style="" viewBox="0 0 1024 1024" version="1.1" xmlns="http://www.w3.org/2000/svg" p-id="2790" xmlns:xlink="http://www.w3.org/1999/xlink" width="16" height="16"><defs><style type="text/css"></style></defs><path d="M849.746432 409.200384 849.746432 340.965786C849.746432 152.648448 698.293094 0 511.575398 0 324.858982 0 173.404416 152.648448 173.404416 340.965786L173.404416 409.200384 76.8 409.200384 76.8 876.843725C76.8 957.566106 141.639168 1022.999706 221.755955 1022.999706L801.492275 1022.999706C881.511629 1022.999706 946.44823 957.566106 946.44823 876.843725L946.44823 409.200384 849.746432 409.200384 849.746432 409.200384ZM255.823923 349.561139C255.823923 198.906982 371.911782 76.726323 515.073229 76.726323 668.522138 76.726323 767.326925 207.594752 767.326925 369.039616L767.326925 409.200384 255.823923 409.200384 255.823923 349.561139 255.823923 349.561139ZM869.624525 810.906829C869.624525 918.702848 843.254016 946.2784 741.75063 946.2784L281.400218 946.2784C179.497216 946.2784 153.526323 919.102464 153.526323 810.906829L153.526323 485.926707 869.624525 485.926707 869.624525 810.906829 869.624525 810.906829ZM511.575398 818.399539C539.849062 818.399539 562.726707 795.521894 562.726707 767.24823L562.726707 664.95063C562.726707 636.678246 539.849062 613.800602 511.575398 613.800602 483.303014 613.800602 460.424141 636.678246 460.424141 664.95063L460.424141 767.24823C460.424141 795.521894 483.303014 818.399539 511.575398 818.399539L511.575398 818.399539Z" p-id="2791" fill="#e6e6e6"></path></svg>